<mxfile host="app.diagrams.net" agent="Mozilla/5.0 (Windows NT 10.0; Win64; x64) AppleWebKit/537.36 (KHTML, like Gecko) Chrome/129.0.0.0 Safari/537.36" version="24.7.17">
  <diagram name="第 1 页" id="ct40HeSvOnNAWzWTUhqE">
    <mxGraphModel dx="1008" dy="592" grid="1" gridSize="10" guides="1" tooltips="1" connect="1" arrows="1" fold="1" page="1" pageScale="1" pageWidth="827" pageHeight="1169" math="0" shadow="0">
      <root>
        <mxCell id="0" />
        <mxCell id="1" parent="0" />
        <mxCell id="qVbCWLOHQCLR8u-OM19g-1" value="存储位" style="rounded=0;whiteSpace=wrap;html=1;fontSize=15;" parent="1" vertex="1">
          <mxGeometry x="240" y="120" width="80" height="40" as="geometry" />
        </mxCell>
        <mxCell id="qVbCWLOHQCLR8u-OM19g-2" value="" style="endArrow=none;html=1;rounded=0;" parent="1" edge="1">
          <mxGeometry width="50" height="50" relative="1" as="geometry">
            <mxPoint x="200" y="110" as="sourcePoint" />
            <mxPoint x="360" y="110" as="targetPoint" />
          </mxGeometry>
        </mxCell>
        <mxCell id="qVbCWLOHQCLR8u-OM19g-3" value="" style="endArrow=none;html=1;rounded=0;" parent="1" edge="1">
          <mxGeometry width="50" height="50" relative="1" as="geometry">
            <mxPoint x="279.5" y="120" as="sourcePoint" />
            <mxPoint x="279.5" y="110" as="targetPoint" />
          </mxGeometry>
        </mxCell>
        <mxCell id="qVbCWLOHQCLR8u-OM19g-4" value="" style="endArrow=none;html=1;rounded=0;exitX=1;exitY=0.5;exitDx=0;exitDy=0;" parent="1" source="qVbCWLOHQCLR8u-OM19g-1" edge="1">
          <mxGeometry width="50" height="50" relative="1" as="geometry">
            <mxPoint x="390" y="330" as="sourcePoint" />
            <mxPoint x="340" y="140" as="targetPoint" />
          </mxGeometry>
        </mxCell>
        <mxCell id="qVbCWLOHQCLR8u-OM19g-5" value="" style="endArrow=none;html=1;rounded=0;" parent="1" edge="1">
          <mxGeometry width="50" height="50" relative="1" as="geometry">
            <mxPoint x="340" y="180" as="sourcePoint" />
            <mxPoint x="340" y="90" as="targetPoint" />
          </mxGeometry>
        </mxCell>
        <mxCell id="qVbCWLOHQCLR8u-OM19g-6" value="位线" style="text;html=1;align=center;verticalAlign=middle;whiteSpace=wrap;rounded=0;fontSize=14;" parent="1" vertex="1">
          <mxGeometry x="310" y="60" width="60" height="30" as="geometry" />
        </mxCell>
        <mxCell id="qVbCWLOHQCLR8u-OM19g-7" value="字线" style="text;html=1;align=center;verticalAlign=middle;whiteSpace=wrap;rounded=0;fontSize=14;" parent="1" vertex="1">
          <mxGeometry x="140" y="90" width="60" height="30" as="geometry" />
        </mxCell>
        <mxCell id="3aYDQQBhkYT0nXRpQz-l-1" value="{" style="rounded=0;whiteSpace=wrap;html=1;fontSize=15;" vertex="1" parent="1">
          <mxGeometry x="120" y="320" width="60" height="40" as="geometry" />
        </mxCell>
        <mxCell id="3aYDQQBhkYT0nXRpQz-l-2" value="空" style="rounded=0;whiteSpace=wrap;html=1;fontSize=15;" vertex="1" parent="1">
          <mxGeometry x="180" y="320" width="60" height="40" as="geometry" />
        </mxCell>
        <mxCell id="3aYDQQBhkYT0nXRpQz-l-3" value="a" style="rounded=0;whiteSpace=wrap;html=1;fontSize=15;" vertex="1" parent="1">
          <mxGeometry x="240" y="320" width="60" height="40" as="geometry" />
        </mxCell>
        <mxCell id="3aYDQQBhkYT0nXRpQz-l-4" value="空" style="rounded=0;whiteSpace=wrap;html=1;fontSize=15;" vertex="1" parent="1">
          <mxGeometry x="300" y="320" width="60" height="40" as="geometry" />
        </mxCell>
        <mxCell id="3aYDQQBhkYT0nXRpQz-l-5" value=":" style="rounded=0;whiteSpace=wrap;html=1;fontSize=15;" vertex="1" parent="1">
          <mxGeometry x="360" y="320" width="60" height="40" as="geometry" />
        </mxCell>
        <mxCell id="3aYDQQBhkYT0nXRpQz-l-6" value="空" style="rounded=0;whiteSpace=wrap;html=1;fontSize=15;" vertex="1" parent="1">
          <mxGeometry x="420" y="320" width="60" height="40" as="geometry" />
        </mxCell>
        <mxCell id="3aYDQQBhkYT0nXRpQz-l-7" value="1" style="rounded=0;whiteSpace=wrap;html=1;fontSize=15;" vertex="1" parent="1">
          <mxGeometry x="480" y="320" width="60" height="40" as="geometry" />
        </mxCell>
        <mxCell id="3aYDQQBhkYT0nXRpQz-l-8" value="空" style="rounded=0;whiteSpace=wrap;html=1;fontSize=15;" vertex="1" parent="1">
          <mxGeometry x="540" y="320" width="60" height="40" as="geometry" />
        </mxCell>
        <mxCell id="3aYDQQBhkYT0nXRpQz-l-9" value="," style="rounded=0;whiteSpace=wrap;html=1;fontSize=15;" vertex="1" parent="1">
          <mxGeometry x="600" y="320" width="60" height="40" as="geometry" />
        </mxCell>
        <mxCell id="3aYDQQBhkYT0nXRpQz-l-10" value="空" style="rounded=0;whiteSpace=wrap;html=1;fontSize=15;" vertex="1" parent="1">
          <mxGeometry x="660" y="320" width="60" height="40" as="geometry" />
        </mxCell>
        <mxCell id="3aYDQQBhkYT0nXRpQz-l-11" value="}" style="rounded=0;whiteSpace=wrap;html=1;fontSize=15;" vertex="1" parent="1">
          <mxGeometry x="720" y="320" width="60" height="40" as="geometry" />
        </mxCell>
        <mxCell id="3aYDQQBhkYT0nXRpQz-l-12" value="空" style="rounded=0;whiteSpace=wrap;html=1;fontSize=15;" vertex="1" parent="1">
          <mxGeometry x="60" y="320" width="60" height="40" as="geometry" />
        </mxCell>
        <mxCell id="3aYDQQBhkYT0nXRpQz-l-13" value="0" style="text;html=1;align=center;verticalAlign=middle;whiteSpace=wrap;rounded=0;fontSize=14;" vertex="1" parent="1">
          <mxGeometry x="60" y="360" width="60" height="30" as="geometry" />
        </mxCell>
        <mxCell id="3aYDQQBhkYT0nXRpQz-l-14" value="1" style="text;html=1;align=center;verticalAlign=middle;whiteSpace=wrap;rounded=0;fontSize=14;" vertex="1" parent="1">
          <mxGeometry x="120" y="360" width="60" height="30" as="geometry" />
        </mxCell>
        <mxCell id="3aYDQQBhkYT0nXRpQz-l-15" value="2" style="text;html=1;align=center;verticalAlign=middle;whiteSpace=wrap;rounded=0;fontSize=14;" vertex="1" parent="1">
          <mxGeometry x="180" y="360" width="60" height="30" as="geometry" />
        </mxCell>
        <mxCell id="3aYDQQBhkYT0nXRpQz-l-16" value="3" style="text;html=1;align=center;verticalAlign=middle;whiteSpace=wrap;rounded=0;fontSize=14;" vertex="1" parent="1">
          <mxGeometry x="240" y="360" width="60" height="30" as="geometry" />
        </mxCell>
        <mxCell id="3aYDQQBhkYT0nXRpQz-l-17" value="4" style="text;html=1;align=center;verticalAlign=middle;whiteSpace=wrap;rounded=0;fontSize=14;" vertex="1" parent="1">
          <mxGeometry x="300" y="360" width="60" height="30" as="geometry" />
        </mxCell>
        <mxCell id="3aYDQQBhkYT0nXRpQz-l-18" value="5" style="text;html=1;align=center;verticalAlign=middle;whiteSpace=wrap;rounded=0;fontSize=14;" vertex="1" parent="1">
          <mxGeometry x="360" y="360" width="60" height="30" as="geometry" />
        </mxCell>
        <mxCell id="3aYDQQBhkYT0nXRpQz-l-19" value="6" style="text;html=1;align=center;verticalAlign=middle;whiteSpace=wrap;rounded=0;fontSize=14;" vertex="1" parent="1">
          <mxGeometry x="420" y="360" width="60" height="30" as="geometry" />
        </mxCell>
        <mxCell id="3aYDQQBhkYT0nXRpQz-l-20" value="7" style="text;html=1;align=center;verticalAlign=middle;whiteSpace=wrap;rounded=0;fontSize=14;" vertex="1" parent="1">
          <mxGeometry x="480" y="360" width="60" height="30" as="geometry" />
        </mxCell>
        <mxCell id="3aYDQQBhkYT0nXRpQz-l-21" value="8" style="text;html=1;align=center;verticalAlign=middle;whiteSpace=wrap;rounded=0;fontSize=14;" vertex="1" parent="1">
          <mxGeometry x="540" y="360" width="60" height="30" as="geometry" />
        </mxCell>
        <mxCell id="3aYDQQBhkYT0nXRpQz-l-22" value="9" style="text;html=1;align=center;verticalAlign=middle;whiteSpace=wrap;rounded=0;fontSize=14;" vertex="1" parent="1">
          <mxGeometry x="600" y="360" width="60" height="30" as="geometry" />
        </mxCell>
        <mxCell id="3aYDQQBhkYT0nXRpQz-l-23" value="10" style="text;html=1;align=center;verticalAlign=middle;whiteSpace=wrap;rounded=0;fontSize=14;" vertex="1" parent="1">
          <mxGeometry x="660" y="360" width="60" height="30" as="geometry" />
        </mxCell>
        <mxCell id="3aYDQQBhkYT0nXRpQz-l-24" value="11" style="text;html=1;align=center;verticalAlign=middle;whiteSpace=wrap;rounded=0;fontSize=14;" vertex="1" parent="1">
          <mxGeometry x="720" y="360" width="60" height="30" as="geometry" />
        </mxCell>
        <mxCell id="3aYDQQBhkYT0nXRpQz-l-25" value="不合法" style="rounded=0;whiteSpace=wrap;html=1;fontSize=15;" vertex="1" parent="1">
          <mxGeometry x="60" y="410" width="60" height="40" as="geometry" />
        </mxCell>
        <mxCell id="3aYDQQBhkYT0nXRpQz-l-26" value="12" style="text;html=1;align=center;verticalAlign=middle;whiteSpace=wrap;rounded=0;fontSize=14;" vertex="1" parent="1">
          <mxGeometry x="60" y="450" width="60" height="30" as="geometry" />
        </mxCell>
      </root>
    </mxGraphModel>
  </diagram>
</mxfile>
